<svg xmlns="http://www.w3.org/2000/svg" fill-rule="evenodd" stroke-linejoin="round" stroke-miterlimit="2" clip-rule="evenodd" viewBox="0 0 96 96" id="friends"><rect width="96" height="96" fill="none"></rect><path d="M69.174 1.299c-4.942 0-8.955 4.013-8.955 8.955 0 4.943 4.013 8.955 8.955 8.955 4.943 0 8.955-4.012 8.955-8.955 0-4.942-4.012-8.955-8.955-8.955zm0 3c3.287 0 5.955 2.668 5.955 5.955 0 3.287-2.668 5.955-5.955 5.955-3.287 0-5.955-2.668-5.955-5.955 0-3.287 2.668-5.955 5.955-5.955zM26.517 1.299c-4.942 0-8.955 4.013-8.955 8.955 0 4.943 4.013 8.955 8.955 8.955 4.943 0 8.955-4.012 8.955-8.955 0-4.942-4.012-8.955-8.955-8.955zm0 3c3.287 0 5.955 2.668 5.955 5.955 0 3.287-2.668 5.955-5.955 5.955-3.287 0-5.955-2.668-5.955-5.955 0-3.287 2.668-5.955 5.955-5.955zM81.806 94l0-48.176c0-.828-.672-1.5-1.5-1.5-.827 0-1.5.672-1.5 1.5l0 48.176c0 .828.673 1.5 1.5 1.5.828 0 1.5-.672 1.5-1.5zm-31.173-61.668l5.909 3.821c0 0 0 57.847 0 57.847 0 .828.672 1.5 1.5 1.5.828 0 1.5-.672 1.5-1.5l0-58.663c0-.509-.258-.983-.686-1.26l-6.594-4.264c-.695-.45-1.624-.25-2.074.445-.449.695-.25 1.624.445 2.074zm33.634 32.013c1.327 1.203 3.209 1.748 5.079 1.292 2.993-.731 4.831-3.755 4.1-6.748 0 0-3.806-15.598-6-24.584-1.08-4.426-4.601-7.841-9.059-8.785-.001 0-.002-.001-.003-.001-4.232-.887-9.805-1.875-14.443-2.102-.02-.001-.041-.002-.061-.002-2.167-.017-4.284-.651-6.103-1.828-.009-.005-.017-.011-.026-.016-1.811-1.121-3.854-2.431-4.657-2.948-.697-.448-1.625-.246-2.074.45-.448.696-.246 1.625.45 2.073.811.522 2.873 1.844 4.702 2.976 2.28 1.471 4.943 2.268 7.669 2.293 4.463.222 9.84 1.184 13.926 2.04 3.329.705 5.958 3.256 6.765 6.561l6 24.584c.338 1.385-.512 2.784-1.898 3.122-.866.212-1.737-.042-2.352-.599-.613-.556-1.562-.51-2.118.103-.557.613-.51 1.563.103 2.119z"></path><path d="M16.885 94l0-50.074c0-.827-.672-1.5-1.5-1.5-.828 0-1.5.673-1.5 1.5l0 50.074c0 .828.672 1.5 1.5 1.5.828 0 1.5-.672 1.5-1.5zm25.377-75.159c-1.1.712-3.296 2.134-4.896 3.174-.009.006-.018.012-.027.018-.961.655-2.067 1.066-3.223 1.197-4.181.464-13.797 1.584-17.974 2.474 0 0-.001 0-.001 0-3.566.761-6.382 3.496-7.246 7.039-2.11 8.648-6.341 25.983-6.341 25.983-.731 2.994 1.107 6.018 4.1 6.748 1.642.401 3.293.03 4.57-.882.674-.481.83-1.418.349-2.092-.481-.674-1.418-.83-2.092-.349-.591.422-1.355.594-2.115.409-1.386-.338-2.236-1.737-1.898-3.123l6.342-25.983c.591-2.424 2.517-4.295 4.957-4.816 4.11-.876 13.572-1.971 17.683-2.427.001 0 .002 0 .003 0 1.634-.185 3.199-.764 4.559-1.688 2.299-1.495 5.762-3.758 5.762-3.758.311-.285.488-.686.488-1.108l0-13.573c0-1.426 1.158-2.584 2.584-2.584 1.426 0 2.583 1.158 2.583 2.584l0 15.796c0 .876-.444 1.693-1.18 2.169-.018.012-.035.023-.053.036l-12.413 8.789c-.398.281-.634.737-.634 1.224l0 59.902c0 .828.672 1.5 1.5 1.5.828 0 1.5-.672 1.5-1.5l0-59.126c0 0 11.758-8.325 11.758-8.325 1.573-1.031 2.522-2.786 2.522-4.669 0 0 0-15.796 0-15.796 0-3.082-2.502-5.584-5.583-5.584-3.082 0-5.584 2.502-5.584 5.584l0 12.757zM67.674 62.906l0 30.773c0 .828.672 1.5 1.5 1.5.828 0 1.5-.672 1.5-1.5l0-30.773c0-.828-.672-1.5-1.5-1.5-.828 0-1.5.672-1.5 1.5z"></path><path d="M25.017 62.906l0 30.773c0 .828.672 1.5 1.5 1.5.828 0 1.5-.672 1.5-1.5l0-30.773c0-.828-.672-1.5-1.5-1.5-.828 0-1.5.672-1.5 1.5zM39.149 35.247l0-4.541c0-.828-.672-1.5-1.5-1.5-.828 0-1.5.672-1.5 1.5l0 4.541c0 .828.672 1.5 1.5 1.5.828 0 1.5-.672 1.5-1.5zM59.542 36.472l0-6.618c0-.828-.672-1.5-1.5-1.5-.828 0-1.5.672-1.5 1.5l0 6.618c0 .828.672 1.5 1.5 1.5.828 0 1.5-.672 1.5-1.5z"></path></svg>