<svg xmlns="http://www.w3.org/2000/svg" enable-background="new 0 0 48 48" viewBox="0 0 48 48" id="plus"><path d="M34,20h-6v-6c0-0.28-0.22-0.5-0.5-0.5h-7c-0.28,0-0.5,0.22-0.5,0.5v6h-6c-0.28,0-0.5,0.22-0.5,0.5v7
	c0,0.28,0.22,0.5,0.5,0.5h6v6c0,0.28,0.22,0.5,0.5,0.5h7c0.28,0,0.5-0.22,0.5-0.5v-6h6c0.28,0,0.5-0.22,0.5-0.5v-7
	C34.5,20.22,34.28,20,34,20z M33.5,27h-6c-0.28,0-0.5,0.22-0.5,0.5v6h-6v-6c0-0.28-0.22-0.5-0.5-0.5h-6v-6h6
	c0.28,0,0.5-0.22,0.5-0.5v-6h6v6c0,0.28,0.22,0.5,0.5,0.5h6V27z"></path><path d="M24,3.5C12.7,3.5,3.5,12.7,3.5,24S12.7,44.5,24,44.5S44.5,35.3,44.5,24S35.3,3.5,24,3.5z M24,43.5
	C13.25,43.5,4.5,34.75,4.5,24S13.25,4.5,24,4.5c10.75,0,19.5,8.75,19.5,19.5S34.75,43.5,24,43.5z"></path></svg>